<mxfile host="app.diagrams.net" modified="2022-10-20T22:27:50.018Z" agent="5.0 (Windows NT 10.0; Win64; x64) AppleWebKit/537.36 (KHTML, like Gecko) Chrome/106.0.0.0 Safari/537.36" etag="ab8i6_bm8qb_WkXtCUEw" version="20.4.2" type="github">
  <diagram id="R2lEEEUBdFMjLlhIrx00" name="Page-1">
    <mxGraphModel dx="1422" dy="776" grid="1" gridSize="10" guides="1" tooltips="1" connect="1" arrows="1" fold="1" page="1" pageScale="1" pageWidth="850" pageHeight="1100" math="0" shadow="0" extFonts="Permanent Marker^https://fonts.googleapis.com/css?family=Permanent+Marker">
      <root>
        <mxCell id="0" />
        <mxCell id="1" parent="0" />
        <mxCell id="PfcQi40fvJK5_6Pg-RUV-7" value="Project" style="rounded=1;arcSize=10;whiteSpace=wrap;html=1;align=center;" parent="1" vertex="1">
          <mxGeometry x="630" y="440" width="100" height="40" as="geometry" />
        </mxCell>
        <mxCell id="PfcQi40fvJK5_6Pg-RUV-8" value="Department" style="rounded=1;arcSize=10;whiteSpace=wrap;html=1;align=center;" parent="1" vertex="1">
          <mxGeometry x="630" y="120" width="100" height="40" as="geometry" />
        </mxCell>
        <mxCell id="PfcQi40fvJK5_6Pg-RUV-9" value="Employee" style="rounded=1;arcSize=10;whiteSpace=wrap;html=1;align=center;" parent="1" vertex="1">
          <mxGeometry x="130" y="120" width="100" height="40" as="geometry" />
        </mxCell>
        <mxCell id="PfcQi40fvJK5_6Pg-RUV-10" value="Dependent" style="shape=ext;margin=3;double=1;whiteSpace=wrap;html=1;align=center;" parent="1" vertex="1">
          <mxGeometry x="130" y="440" width="100" height="40" as="geometry" />
        </mxCell>
        <mxCell id="PfcQi40fvJK5_6Pg-RUV-11" value="Has" style="shape=rhombus;double=1;perimeter=rhombusPerimeter;whiteSpace=wrap;html=1;align=center;" parent="1" vertex="1">
          <mxGeometry x="120" y="270" width="120" height="60" as="geometry" />
        </mxCell>
        <mxCell id="PfcQi40fvJK5_6Pg-RUV-13" value="" style="endArrow=none;html=1;rounded=0;exitX=0.5;exitY=1;exitDx=0;exitDy=0;entryX=0.5;entryY=0;entryDx=0;entryDy=0;" parent="1" source="PfcQi40fvJK5_6Pg-RUV-11" target="PfcQi40fvJK5_6Pg-RUV-10" edge="1">
          <mxGeometry relative="1" as="geometry">
            <mxPoint x="340" y="390" as="sourcePoint" />
            <mxPoint x="500" y="390" as="targetPoint" />
          </mxGeometry>
        </mxCell>
        <mxCell id="PfcQi40fvJK5_6Pg-RUV-14" value="N" style="resizable=0;html=1;align=right;verticalAlign=bottom;" parent="PfcQi40fvJK5_6Pg-RUV-13" connectable="0" vertex="1">
          <mxGeometry x="1" relative="1" as="geometry" />
        </mxCell>
        <mxCell id="PfcQi40fvJK5_6Pg-RUV-15" value="" style="endArrow=none;html=1;rounded=0;exitX=0.5;exitY=0;exitDx=0;exitDy=0;entryX=0.5;entryY=1;entryDx=0;entryDy=0;" parent="1" source="PfcQi40fvJK5_6Pg-RUV-11" target="PfcQi40fvJK5_6Pg-RUV-9" edge="1">
          <mxGeometry relative="1" as="geometry">
            <mxPoint x="340" y="390" as="sourcePoint" />
            <mxPoint x="500" y="390" as="targetPoint" />
          </mxGeometry>
        </mxCell>
        <mxCell id="PfcQi40fvJK5_6Pg-RUV-16" value="1" style="resizable=0;html=1;align=right;verticalAlign=bottom;" parent="PfcQi40fvJK5_6Pg-RUV-15" connectable="0" vertex="1">
          <mxGeometry x="1" relative="1" as="geometry" />
        </mxCell>
        <mxCell id="PfcQi40fvJK5_6Pg-RUV-19" value="&lt;span style=&quot;border-bottom: 1px dotted&quot;&gt;Name&lt;/span&gt;" style="ellipse;whiteSpace=wrap;html=1;align=center;" parent="1" vertex="1">
          <mxGeometry x="310" y="530" width="100" height="40" as="geometry" />
        </mxCell>
        <mxCell id="PfcQi40fvJK5_6Pg-RUV-22" value="BDate" style="ellipse;whiteSpace=wrap;html=1;align=center;" parent="1" vertex="1">
          <mxGeometry x="210" y="530" width="100" height="40" as="geometry" />
        </mxCell>
        <mxCell id="PfcQi40fvJK5_6Pg-RUV-23" value="Sex" style="ellipse;whiteSpace=wrap;html=1;align=center;" parent="1" vertex="1">
          <mxGeometry x="110" y="530" width="100" height="40" as="geometry" />
        </mxCell>
        <mxCell id="PfcQi40fvJK5_6Pg-RUV-24" value="Relationship" style="ellipse;whiteSpace=wrap;html=1;align=center;" parent="1" vertex="1">
          <mxGeometry x="10" y="530" width="100" height="40" as="geometry" />
        </mxCell>
        <mxCell id="PfcQi40fvJK5_6Pg-RUV-26" value="" style="endArrow=none;html=1;rounded=0;exitX=0.5;exitY=0;exitDx=0;exitDy=0;entryX=0.11;entryY=1;entryDx=0;entryDy=0;entryPerimeter=0;" parent="1" source="PfcQi40fvJK5_6Pg-RUV-24" target="PfcQi40fvJK5_6Pg-RUV-10" edge="1">
          <mxGeometry relative="1" as="geometry">
            <mxPoint x="340" y="390" as="sourcePoint" />
            <mxPoint x="500" y="390" as="targetPoint" />
          </mxGeometry>
        </mxCell>
        <mxCell id="PfcQi40fvJK5_6Pg-RUV-27" value="" style="endArrow=none;html=1;rounded=0;exitX=0.5;exitY=0;exitDx=0;exitDy=0;entryX=0.92;entryY=1.05;entryDx=0;entryDy=0;entryPerimeter=0;" parent="1" source="PfcQi40fvJK5_6Pg-RUV-19" target="PfcQi40fvJK5_6Pg-RUV-10" edge="1">
          <mxGeometry relative="1" as="geometry">
            <mxPoint x="340" y="390" as="sourcePoint" />
            <mxPoint x="500" y="390" as="targetPoint" />
          </mxGeometry>
        </mxCell>
        <mxCell id="PfcQi40fvJK5_6Pg-RUV-28" value="" style="endArrow=none;html=1;rounded=0;exitX=0.5;exitY=0;exitDx=0;exitDy=0;entryX=0.67;entryY=1.05;entryDx=0;entryDy=0;entryPerimeter=0;" parent="1" source="PfcQi40fvJK5_6Pg-RUV-22" target="PfcQi40fvJK5_6Pg-RUV-10" edge="1">
          <mxGeometry relative="1" as="geometry">
            <mxPoint x="340" y="390" as="sourcePoint" />
            <mxPoint x="500" y="390" as="targetPoint" />
          </mxGeometry>
        </mxCell>
        <mxCell id="PfcQi40fvJK5_6Pg-RUV-29" value="" style="endArrow=none;html=1;rounded=0;exitX=0.5;exitY=0;exitDx=0;exitDy=0;entryX=0.36;entryY=1;entryDx=0;entryDy=0;entryPerimeter=0;" parent="1" source="PfcQi40fvJK5_6Pg-RUV-23" target="PfcQi40fvJK5_6Pg-RUV-10" edge="1">
          <mxGeometry relative="1" as="geometry">
            <mxPoint x="340" y="390" as="sourcePoint" />
            <mxPoint x="500" y="390" as="targetPoint" />
          </mxGeometry>
        </mxCell>
        <mxCell id="PfcQi40fvJK5_6Pg-RUV-30" value="Pnumber" style="ellipse;whiteSpace=wrap;html=1;align=center;fontStyle=4;" parent="1" vertex="1">
          <mxGeometry x="730" y="530" width="100" height="40" as="geometry" />
        </mxCell>
        <mxCell id="PfcQi40fvJK5_6Pg-RUV-32" value="&lt;u&gt;Pname&lt;/u&gt;" style="ellipse;whiteSpace=wrap;html=1;align=center;" parent="1" vertex="1">
          <mxGeometry x="530" y="530" width="100" height="40" as="geometry" />
        </mxCell>
        <mxCell id="PfcQi40fvJK5_6Pg-RUV-33" value="" style="endArrow=none;html=1;rounded=0;exitX=0.5;exitY=0;exitDx=0;exitDy=0;entryX=0.85;entryY=1;entryDx=0;entryDy=0;entryPerimeter=0;" parent="1" source="PfcQi40fvJK5_6Pg-RUV-30" target="PfcQi40fvJK5_6Pg-RUV-7" edge="1">
          <mxGeometry relative="1" as="geometry">
            <mxPoint x="340" y="390" as="sourcePoint" />
            <mxPoint x="500" y="390" as="targetPoint" />
          </mxGeometry>
        </mxCell>
        <mxCell id="PfcQi40fvJK5_6Pg-RUV-34" value="" style="endArrow=none;html=1;rounded=0;exitX=0.5;exitY=0;exitDx=0;exitDy=0;entryX=0.5;entryY=1;entryDx=0;entryDy=0;" parent="1" target="PfcQi40fvJK5_6Pg-RUV-7" edge="1">
          <mxGeometry relative="1" as="geometry">
            <mxPoint x="680" y="530" as="sourcePoint" />
            <mxPoint x="500" y="390" as="targetPoint" />
          </mxGeometry>
        </mxCell>
        <mxCell id="PfcQi40fvJK5_6Pg-RUV-35" value="" style="endArrow=none;html=1;rounded=0;exitX=0.44;exitY=-0.05;exitDx=0;exitDy=0;exitPerimeter=0;entryX=0.25;entryY=1;entryDx=0;entryDy=0;" parent="1" source="PfcQi40fvJK5_6Pg-RUV-32" target="PfcQi40fvJK5_6Pg-RUV-7" edge="1">
          <mxGeometry relative="1" as="geometry">
            <mxPoint x="340" y="390" as="sourcePoint" />
            <mxPoint x="500" y="390" as="targetPoint" />
          </mxGeometry>
        </mxCell>
        <mxCell id="PfcQi40fvJK5_6Pg-RUV-36" value="Location" style="ellipse;shape=doubleEllipse;margin=3;whiteSpace=wrap;html=1;align=center;" parent="1" vertex="1">
          <mxGeometry x="520" y="60" width="100" height="40" as="geometry" />
        </mxCell>
        <mxCell id="PfcQi40fvJK5_6Pg-RUV-37" value="Dnumber" style="ellipse;whiteSpace=wrap;html=1;align=center;fontStyle=4;" parent="1" vertex="1">
          <mxGeometry x="720" y="60" width="100" height="40" as="geometry" />
        </mxCell>
        <mxCell id="PfcQi40fvJK5_6Pg-RUV-38" value="Dname" style="ellipse;whiteSpace=wrap;html=1;align=center;" parent="1" vertex="1">
          <mxGeometry x="620" y="60" width="100" height="40" as="geometry" />
        </mxCell>
        <mxCell id="PfcQi40fvJK5_6Pg-RUV-39" value="Contains" style="shape=rhombus;perimeter=rhombusPerimeter;whiteSpace=wrap;html=1;align=center;" parent="1" vertex="1">
          <mxGeometry x="620" y="250" width="120" height="60" as="geometry" />
        </mxCell>
        <mxCell id="PfcQi40fvJK5_6Pg-RUV-40" value="" style="endArrow=none;html=1;rounded=0;exitX=0.5;exitY=1;exitDx=0;exitDy=0;entryX=0.5;entryY=0;entryDx=0;entryDy=0;" parent="1" source="PfcQi40fvJK5_6Pg-RUV-8" target="PfcQi40fvJK5_6Pg-RUV-39" edge="1">
          <mxGeometry relative="1" as="geometry">
            <mxPoint x="340" y="390" as="sourcePoint" />
            <mxPoint x="680" y="240" as="targetPoint" />
          </mxGeometry>
        </mxCell>
        <mxCell id="PfcQi40fvJK5_6Pg-RUV-41" value="1" style="resizable=0;html=1;align=right;verticalAlign=bottom;" parent="PfcQi40fvJK5_6Pg-RUV-40" connectable="0" vertex="1">
          <mxGeometry x="1" relative="1" as="geometry" />
        </mxCell>
        <mxCell id="PfcQi40fvJK5_6Pg-RUV-42" value="" style="endArrow=none;html=1;rounded=0;exitX=0.5;exitY=1;exitDx=0;exitDy=0;entryX=0.5;entryY=0;entryDx=0;entryDy=0;" parent="1" source="PfcQi40fvJK5_6Pg-RUV-39" target="PfcQi40fvJK5_6Pg-RUV-7" edge="1">
          <mxGeometry relative="1" as="geometry">
            <mxPoint x="340" y="390" as="sourcePoint" />
            <mxPoint x="500" y="390" as="targetPoint" />
          </mxGeometry>
        </mxCell>
        <mxCell id="PfcQi40fvJK5_6Pg-RUV-43" value="N" style="resizable=0;html=1;align=right;verticalAlign=bottom;" parent="PfcQi40fvJK5_6Pg-RUV-42" connectable="0" vertex="1">
          <mxGeometry x="1" relative="1" as="geometry" />
        </mxCell>
        <mxCell id="PfcQi40fvJK5_6Pg-RUV-44" value="Works-In" style="shape=rhombus;perimeter=rhombusPerimeter;whiteSpace=wrap;html=1;align=center;" parent="1" vertex="1">
          <mxGeometry x="370" y="110" width="120" height="60" as="geometry" />
        </mxCell>
        <mxCell id="PfcQi40fvJK5_6Pg-RUV-45" value="" style="endArrow=none;html=1;rounded=0;exitX=1;exitY=0.5;exitDx=0;exitDy=0;entryX=0;entryY=0.5;entryDx=0;entryDy=0;" parent="1" source="PfcQi40fvJK5_6Pg-RUV-44" target="PfcQi40fvJK5_6Pg-RUV-8" edge="1">
          <mxGeometry relative="1" as="geometry">
            <mxPoint x="340" y="390" as="sourcePoint" />
            <mxPoint x="500" y="390" as="targetPoint" />
          </mxGeometry>
        </mxCell>
        <mxCell id="PfcQi40fvJK5_6Pg-RUV-46" value="1" style="resizable=0;html=1;align=right;verticalAlign=bottom;" parent="PfcQi40fvJK5_6Pg-RUV-45" connectable="0" vertex="1">
          <mxGeometry x="1" relative="1" as="geometry" />
        </mxCell>
        <mxCell id="PfcQi40fvJK5_6Pg-RUV-47" value="" style="endArrow=none;html=1;rounded=0;exitX=1;exitY=0.5;exitDx=0;exitDy=0;entryX=0;entryY=0.5;entryDx=0;entryDy=0;" parent="1" source="PfcQi40fvJK5_6Pg-RUV-9" target="PfcQi40fvJK5_6Pg-RUV-44" edge="1">
          <mxGeometry relative="1" as="geometry">
            <mxPoint x="340" y="390" as="sourcePoint" />
            <mxPoint x="500" y="390" as="targetPoint" />
          </mxGeometry>
        </mxCell>
        <mxCell id="PfcQi40fvJK5_6Pg-RUV-48" value="N" style="resizable=0;html=1;align=right;verticalAlign=bottom;" parent="PfcQi40fvJK5_6Pg-RUV-47" connectable="0" vertex="1">
          <mxGeometry x="1" relative="1" as="geometry" />
        </mxCell>
        <mxCell id="PfcQi40fvJK5_6Pg-RUV-49" value="Works-On" style="shape=rhombus;perimeter=rhombusPerimeter;whiteSpace=wrap;html=1;align=center;" parent="1" vertex="1">
          <mxGeometry x="390" y="300" width="120" height="60" as="geometry" />
        </mxCell>
        <mxCell id="PfcQi40fvJK5_6Pg-RUV-50" value="" style="endArrow=none;html=1;rounded=0;exitX=1;exitY=1;exitDx=0;exitDy=0;entryX=0;entryY=0.25;entryDx=0;entryDy=0;" parent="1" source="PfcQi40fvJK5_6Pg-RUV-49" target="PfcQi40fvJK5_6Pg-RUV-7" edge="1">
          <mxGeometry relative="1" as="geometry">
            <mxPoint x="360" y="330" as="sourcePoint" />
            <mxPoint x="520" y="330" as="targetPoint" />
          </mxGeometry>
        </mxCell>
        <mxCell id="PfcQi40fvJK5_6Pg-RUV-51" value="N" style="resizable=0;html=1;align=right;verticalAlign=bottom;" parent="PfcQi40fvJK5_6Pg-RUV-50" connectable="0" vertex="1">
          <mxGeometry x="1" relative="1" as="geometry" />
        </mxCell>
        <mxCell id="PfcQi40fvJK5_6Pg-RUV-52" value="" style="endArrow=none;html=1;rounded=0;exitX=1;exitY=1;exitDx=0;exitDy=0;entryX=0.15;entryY=0.3;entryDx=0;entryDy=0;entryPerimeter=0;" parent="1" source="PfcQi40fvJK5_6Pg-RUV-9" target="PfcQi40fvJK5_6Pg-RUV-49" edge="1">
          <mxGeometry relative="1" as="geometry">
            <mxPoint x="360" y="330" as="sourcePoint" />
            <mxPoint x="520" y="330" as="targetPoint" />
          </mxGeometry>
        </mxCell>
        <mxCell id="PfcQi40fvJK5_6Pg-RUV-53" value="M" style="resizable=0;html=1;align=left;verticalAlign=bottom;" parent="PfcQi40fvJK5_6Pg-RUV-52" connectable="0" vertex="1">
          <mxGeometry x="-1" relative="1" as="geometry" />
        </mxCell>
        <mxCell id="PfcQi40fvJK5_6Pg-RUV-54" value="N" style="resizable=0;html=1;align=right;verticalAlign=bottom;" parent="PfcQi40fvJK5_6Pg-RUV-52" connectable="0" vertex="1">
          <mxGeometry x="1" relative="1" as="geometry" />
        </mxCell>
        <mxCell id="PfcQi40fvJK5_6Pg-RUV-55" value="Hourrs" style="ellipse;whiteSpace=wrap;html=1;align=center;" parent="1" vertex="1">
          <mxGeometry x="325" y="390" width="100" height="40" as="geometry" />
        </mxCell>
        <mxCell id="PfcQi40fvJK5_6Pg-RUV-57" value="" style="endArrow=none;html=1;rounded=0;exitX=0.77;exitY=0;exitDx=0;exitDy=0;exitPerimeter=0;entryX=0.325;entryY=0.917;entryDx=0;entryDy=0;entryPerimeter=0;" parent="1" source="PfcQi40fvJK5_6Pg-RUV-55" target="PfcQi40fvJK5_6Pg-RUV-49" edge="1">
          <mxGeometry relative="1" as="geometry">
            <mxPoint x="360" y="330" as="sourcePoint" />
            <mxPoint x="520" y="330" as="targetPoint" />
          </mxGeometry>
        </mxCell>
        <mxCell id="PfcQi40fvJK5_6Pg-RUV-59" value="Sex" style="ellipse;whiteSpace=wrap;html=1;align=center;" parent="1" vertex="1">
          <mxGeometry x="310" y="60" width="100" height="40" as="geometry" />
        </mxCell>
        <mxCell id="PfcQi40fvJK5_6Pg-RUV-60" value="Fname" style="ellipse;whiteSpace=wrap;html=1;align=center;" parent="1" vertex="1">
          <mxGeometry x="210" y="60" width="100" height="40" as="geometry" />
        </mxCell>
        <mxCell id="PfcQi40fvJK5_6Pg-RUV-61" value="Lname" style="ellipse;whiteSpace=wrap;html=1;align=center;" parent="1" vertex="1">
          <mxGeometry x="110" y="60" width="100" height="40" as="geometry" />
        </mxCell>
        <mxCell id="PfcQi40fvJK5_6Pg-RUV-62" value="Minit" style="ellipse;whiteSpace=wrap;html=1;align=center;" parent="1" vertex="1">
          <mxGeometry x="10" y="60" width="100" height="40" as="geometry" />
        </mxCell>
        <mxCell id="PfcQi40fvJK5_6Pg-RUV-63" value="Bday" style="ellipse;whiteSpace=wrap;html=1;align=center;" parent="1" vertex="1">
          <mxGeometry x="10" y="100" width="100" height="40" as="geometry" />
        </mxCell>
        <mxCell id="PfcQi40fvJK5_6Pg-RUV-64" value="Salary" style="ellipse;whiteSpace=wrap;html=1;align=center;" parent="1" vertex="1">
          <mxGeometry x="10" y="180" width="100" height="40" as="geometry" />
        </mxCell>
        <mxCell id="PfcQi40fvJK5_6Pg-RUV-65" value="Address" style="ellipse;whiteSpace=wrap;html=1;align=center;" parent="1" vertex="1">
          <mxGeometry x="10" y="140" width="100" height="40" as="geometry" />
        </mxCell>
        <mxCell id="PfcQi40fvJK5_6Pg-RUV-66" value="SSN" style="ellipse;whiteSpace=wrap;html=1;align=center;fontStyle=4;" parent="1" vertex="1">
          <mxGeometry x="10" y="220" width="100" height="40" as="geometry" />
        </mxCell>
        <mxCell id="PfcQi40fvJK5_6Pg-RUV-67" value="" style="endArrow=none;html=1;rounded=0;exitX=0.5;exitY=1;exitDx=0;exitDy=0;entryX=0.93;entryY=0;entryDx=0;entryDy=0;entryPerimeter=0;" parent="1" source="PfcQi40fvJK5_6Pg-RUV-59" target="PfcQi40fvJK5_6Pg-RUV-9" edge="1">
          <mxGeometry relative="1" as="geometry">
            <mxPoint x="360" y="330" as="sourcePoint" />
            <mxPoint x="520" y="330" as="targetPoint" />
          </mxGeometry>
        </mxCell>
        <mxCell id="PfcQi40fvJK5_6Pg-RUV-69" value="" style="endArrow=none;html=1;rounded=0;exitX=1;exitY=0.5;exitDx=0;exitDy=0;" parent="1" source="PfcQi40fvJK5_6Pg-RUV-63" edge="1">
          <mxGeometry relative="1" as="geometry">
            <mxPoint x="360" y="330" as="sourcePoint" />
            <mxPoint x="130" y="130" as="targetPoint" />
          </mxGeometry>
        </mxCell>
        <mxCell id="PfcQi40fvJK5_6Pg-RUV-70" value="" style="endArrow=none;html=1;rounded=0;exitX=0.94;exitY=0.8;exitDx=0;exitDy=0;exitPerimeter=0;" parent="1" source="PfcQi40fvJK5_6Pg-RUV-62" target="PfcQi40fvJK5_6Pg-RUV-9" edge="1">
          <mxGeometry relative="1" as="geometry">
            <mxPoint x="360" y="330" as="sourcePoint" />
            <mxPoint x="520" y="330" as="targetPoint" />
          </mxGeometry>
        </mxCell>
        <mxCell id="PfcQi40fvJK5_6Pg-RUV-71" value="" style="endArrow=none;html=1;rounded=0;exitX=0.65;exitY=1.075;exitDx=0;exitDy=0;exitPerimeter=0;" parent="1" source="PfcQi40fvJK5_6Pg-RUV-61" target="PfcQi40fvJK5_6Pg-RUV-9" edge="1">
          <mxGeometry relative="1" as="geometry">
            <mxPoint x="360" y="330" as="sourcePoint" />
            <mxPoint x="520" y="330" as="targetPoint" />
          </mxGeometry>
        </mxCell>
        <mxCell id="PfcQi40fvJK5_6Pg-RUV-72" value="" style="endArrow=none;html=1;rounded=0;exitX=0.5;exitY=1;exitDx=0;exitDy=0;entryX=0.75;entryY=0;entryDx=0;entryDy=0;" parent="1" source="PfcQi40fvJK5_6Pg-RUV-60" target="PfcQi40fvJK5_6Pg-RUV-9" edge="1">
          <mxGeometry relative="1" as="geometry">
            <mxPoint x="360" y="330" as="sourcePoint" />
            <mxPoint x="520" y="330" as="targetPoint" />
          </mxGeometry>
        </mxCell>
        <mxCell id="PfcQi40fvJK5_6Pg-RUV-73" value="" style="endArrow=none;html=1;rounded=0;exitX=1;exitY=0.25;exitDx=0;exitDy=0;exitPerimeter=0;entryX=0.25;entryY=1;entryDx=0;entryDy=0;" parent="1" source="PfcQi40fvJK5_6Pg-RUV-66" target="PfcQi40fvJK5_6Pg-RUV-9" edge="1">
          <mxGeometry relative="1" as="geometry">
            <mxPoint x="360" y="330" as="sourcePoint" />
            <mxPoint x="520" y="330" as="targetPoint" />
          </mxGeometry>
        </mxCell>
        <mxCell id="PfcQi40fvJK5_6Pg-RUV-74" value="" style="endArrow=none;html=1;rounded=0;exitX=1;exitY=0.5;exitDx=0;exitDy=0;entryX=0.25;entryY=1;entryDx=0;entryDy=0;" parent="1" source="PfcQi40fvJK5_6Pg-RUV-64" target="PfcQi40fvJK5_6Pg-RUV-9" edge="1">
          <mxGeometry relative="1" as="geometry">
            <mxPoint x="360" y="330" as="sourcePoint" />
            <mxPoint x="520" y="330" as="targetPoint" />
          </mxGeometry>
        </mxCell>
        <mxCell id="PfcQi40fvJK5_6Pg-RUV-75" value="" style="endArrow=none;html=1;rounded=0;exitX=1;exitY=0.5;exitDx=0;exitDy=0;entryX=0;entryY=1;entryDx=0;entryDy=0;" parent="1" source="PfcQi40fvJK5_6Pg-RUV-65" target="PfcQi40fvJK5_6Pg-RUV-9" edge="1">
          <mxGeometry relative="1" as="geometry">
            <mxPoint x="360" y="330" as="sourcePoint" />
            <mxPoint x="520" y="330" as="targetPoint" />
          </mxGeometry>
        </mxCell>
        <mxCell id="PfcQi40fvJK5_6Pg-RUV-76" value="" style="endArrow=none;html=1;rounded=0;exitX=0.4;exitY=1;exitDx=0;exitDy=0;exitPerimeter=0;entryX=1;entryY=0;entryDx=0;entryDy=0;" parent="1" source="PfcQi40fvJK5_6Pg-RUV-37" target="PfcQi40fvJK5_6Pg-RUV-8" edge="1">
          <mxGeometry relative="1" as="geometry">
            <mxPoint x="360" y="330" as="sourcePoint" />
            <mxPoint x="520" y="330" as="targetPoint" />
          </mxGeometry>
        </mxCell>
        <mxCell id="PfcQi40fvJK5_6Pg-RUV-77" value="" style="endArrow=none;html=1;rounded=0;exitX=0.35;exitY=1.025;exitDx=0;exitDy=0;exitPerimeter=0;entryX=0.35;entryY=-0.125;entryDx=0;entryDy=0;entryPerimeter=0;" parent="1" source="PfcQi40fvJK5_6Pg-RUV-38" target="PfcQi40fvJK5_6Pg-RUV-8" edge="1">
          <mxGeometry relative="1" as="geometry">
            <mxPoint x="360" y="330" as="sourcePoint" />
            <mxPoint x="520" y="330" as="targetPoint" />
          </mxGeometry>
        </mxCell>
        <mxCell id="PfcQi40fvJK5_6Pg-RUV-78" value="" style="endArrow=none;html=1;rounded=0;exitX=0.5;exitY=1;exitDx=0;exitDy=0;" parent="1" source="PfcQi40fvJK5_6Pg-RUV-36" target="PfcQi40fvJK5_6Pg-RUV-8" edge="1">
          <mxGeometry relative="1" as="geometry">
            <mxPoint x="360" y="330" as="sourcePoint" />
            <mxPoint x="520" y="330" as="targetPoint" />
          </mxGeometry>
        </mxCell>
        <mxCell id="9mOUKAw3nOsy6DbIUJsS-1" value="NoEmployees" style="ellipse;whiteSpace=wrap;html=1;align=center;dashed=1;" vertex="1" parent="1">
          <mxGeometry x="740" y="160" width="100" height="40" as="geometry" />
        </mxCell>
        <mxCell id="9mOUKAw3nOsy6DbIUJsS-2" value="" style="endArrow=none;html=1;rounded=0;entryX=0;entryY=0.5;entryDx=0;entryDy=0;exitX=1;exitY=1;exitDx=0;exitDy=0;" edge="1" parent="1" source="PfcQi40fvJK5_6Pg-RUV-8" target="9mOUKAw3nOsy6DbIUJsS-1">
          <mxGeometry relative="1" as="geometry">
            <mxPoint x="340" y="400" as="sourcePoint" />
            <mxPoint x="500" y="400" as="targetPoint" />
          </mxGeometry>
        </mxCell>
        <mxCell id="9mOUKAw3nOsy6DbIUJsS-3" value="PLocation" style="ellipse;whiteSpace=wrap;html=1;align=center;" vertex="1" parent="1">
          <mxGeometry x="630" y="530" width="100" height="40" as="geometry" />
        </mxCell>
        <mxCell id="9mOUKAw3nOsy6DbIUJsS-4" value="Supervision" style="shape=rhombus;perimeter=rhombusPerimeter;whiteSpace=wrap;html=1;align=center;" vertex="1" parent="1">
          <mxGeometry x="250" y="280" width="120" height="60" as="geometry" />
        </mxCell>
        <mxCell id="9mOUKAw3nOsy6DbIUJsS-5" value="" style="endArrow=none;html=1;rounded=0;entryX=0;entryY=0;entryDx=0;entryDy=0;" edge="1" parent="1" source="PfcQi40fvJK5_6Pg-RUV-9" target="9mOUKAw3nOsy6DbIUJsS-4">
          <mxGeometry relative="1" as="geometry">
            <mxPoint x="340" y="400" as="sourcePoint" />
            <mxPoint x="500" y="400" as="targetPoint" />
          </mxGeometry>
        </mxCell>
        <mxCell id="9mOUKAw3nOsy6DbIUJsS-6" value="1" style="resizable=0;html=1;align=right;verticalAlign=bottom;" connectable="0" vertex="1" parent="9mOUKAw3nOsy6DbIUJsS-5">
          <mxGeometry x="1" relative="1" as="geometry" />
        </mxCell>
        <mxCell id="9mOUKAw3nOsy6DbIUJsS-7" value="" style="endArrow=none;html=1;rounded=0;exitX=0.88;exitY=1.05;exitDx=0;exitDy=0;exitPerimeter=0;entryX=0.892;entryY=0.383;entryDx=0;entryDy=0;entryPerimeter=0;" edge="1" parent="1" source="PfcQi40fvJK5_6Pg-RUV-9" target="9mOUKAw3nOsy6DbIUJsS-4">
          <mxGeometry relative="1" as="geometry">
            <mxPoint x="340" y="400" as="sourcePoint" />
            <mxPoint x="500" y="400" as="targetPoint" />
          </mxGeometry>
        </mxCell>
        <mxCell id="9mOUKAw3nOsy6DbIUJsS-8" value="N" style="resizable=0;html=1;align=right;verticalAlign=bottom;" connectable="0" vertex="1" parent="9mOUKAw3nOsy6DbIUJsS-7">
          <mxGeometry x="1" relative="1" as="geometry" />
        </mxCell>
      </root>
    </mxGraphModel>
  </diagram>
</mxfile>
